<?xml version="1.0" encoding="utf-8"?><svg xml:space="preserve" viewBox="0 0 100 100" y="0" x="0" xmlns="http://www.w3.org/2000/svg" id="圖層_1" version="1.1" width="128px" height="128px" xmlns:xlink="http://www.w3.org/1999/xlink" style="width:100%;height:100%;background-size:initial;background-repeat-y:initial;background-repeat-x:initial;background-position-y:initial;background-position-x:initial;background-origin:initial;background-image:initial;background-color:rgb(255, 255, 255);background-clip:initial;background-attachment:initial;animation-play-state:paused" ><g class="ldl-scale" style="transform-origin:50% 50%;transform:scale(0.8);animation-play-state:paused" ><circle stroke-miterlimit="10" stroke="#333" stroke-width="6" fill="#fff" r="39" cy="50" cx="50" style="stroke:rgb(51, 51, 51);fill:rgb(255, 255, 255);animation-play-state:paused" ></circle>
<path fill="#a0c8d7" d="M50 86c9.181 0 17.554-3.442 23.914-9.099-3.039-9.724-12.116-16.782-22.842-16.782h-2.143c-10.726 0-19.803 7.057-22.842 16.782C32.446 82.558 40.819 86 50 86z" style="fill:rgb(160, 200, 215);animation-play-state:paused" ></path>
<circle fill="#f5e6c8" r="20.238" cy="47.738" cx="50" style="fill:rgb(245, 230, 200);animation-play-state:paused" ></circle>
<path fill="#849b87" d="M42.211 41.54l-2.82-.869a12.672 12.672 0 0 0-1.891 4.563l2.608 1.378c-.042.37-.068.745-.068 1.126 0 .381.026.756.068 1.126L37.5 50.243a12.69 12.69 0 0 0 1.891 4.563l2.82-.869a9.976 9.976 0 0 0 1.591 1.591l-.869 2.82c1.36.908 2.903 1.56 4.563 1.891l1.378-2.608c.37.042.745.068 1.126.068s.756-.026 1.126-.068l1.378 2.608a12.69 12.69 0 0 0 4.563-1.891l-.869-2.82a9.976 9.976 0 0 0 1.591-1.591l2.82.869a12.672 12.672 0 0 0 1.891-4.563l-2.608-1.378c.042-.37.068-.745.068-1.126 0-.381-.026-.756-.068-1.126l2.608-1.378a12.69 12.69 0 0 0-1.891-4.563l-2.82.869a9.976 9.976 0 0 0-1.591-1.591l.869-2.82a12.672 12.672 0 0 0-4.563-1.891l-1.378 2.608c-.37-.042-.745-.068-1.126-.068s-.756.026-1.126.068l-1.378-2.608a12.69 12.69 0 0 0-4.563 1.891l.869 2.82a9.97 9.97 0 0 0-1.591 1.59zM50 40.567a7.17 7.17 0 1 1 0 14.342 7.17 7.17 0 0 1 0-14.342z" style="fill:rgb(132, 155, 135);animation-play-state:paused" ></path>
<metadata xmlns:d="https://loading.io/stock/" style="animation-play-state:paused" ><d:name style="animation-play-state:paused" >superuser</d:name>
<d:tags style="animation-play-state:paused" >superuser,administrator,manager,master,avatar,account,profile,customer,guest</d:tags>
<d:license style="animation-play-state:paused" >by</d:license>
<d:slug style="animation-play-state:paused" >ti1yv4</d:slug></metadata></g><!-- generated by https://loading.io/ --></svg>